<svg xmlns="http://www.w3.org/2000/svg" xmlns:xlink="http://www.w3.org/1999/xlink" xmlns:inkscape="http://www.inkscape.org/namespaces/inkscape" version="1.1" width="329" height="25" viewBox="0 0 329 25">
<defs>
<path id="font_1_1" d="M.33399964 .30233766C.33999635 .32835389 .36299134 .42037965 .43299867 .42037965 .43798829 .42037965 .46199037 .42037965 .48298646 .40734864 .45498658 .402359 .43499757 .37734986 .43499757 .35334779 .43499757 .33735658 .44599916 .31835938 .47299195 .31835938 .49499513 .31835938 .5269928 .3363495 .5269928 .37635804 .5269928 .42837525 .46798707 .4423828 .43399049 .4423828 .37599183 .4423828 .34098817 .38935853 .32899476 .36634828 .3039856 .43237306 .25 .4423828 .22099304 .4423828 .116989139 .4423828 .05999756 .3133545 .05999756 .28834535 .05999756 .27833558 .069992069 .27833558 .07199097 .27833558 .07998657 .27833558 .08299255 .28033448 .084991458 .28933717 .11898804 .39535523 .18499756 .42037965 .21899414 .42037965 .23799134 .42037965 .272995 .4113617 .272995 .35334779 .272995 .32235719 .2559967 .25532533 .21899414 .11528015 .20298767 .053268434 .16799927 .011245728 .12399292 .011245728 .117996219 .011245728 .09498596 .011245728 .07398987 .024276734 .09899902 .029266358 .12098694 .05027771 .12098694 .07827759 .12098694 .105270389 .09899902 .11328125 .083999637 .11328125 .053985597 .11328125 .0289917 .08728027 .0289917 .055267335 .0289917 .009246826 .07899475-.0107421879 .12298584-.0107421879 .18899536-.0107421879 .22499085 .059280397 .22799683 .0652771 .23999024 .028274537 .27598573-.0107421879 .33599855-.0107421879 .43899537-.0107421879 .49598695 .118270877 .49598695 .14328003 .49598695 .1532898 .4869995 .1532898 .48399354 .1532898 .47499085 .1532898 .47299195 .14929199 .47099305 .14228821 .43798829 .03527832 .36999513 .011245728 .33799745 .011245728 .29899598 .011245728 .2829895 .043273927 .2829895 .07727051 .2829895 .09927368 .2889862 .121276859 .2999878 .16529846L.33399964 .30233766Z"/>
<path id="font_2_64" d="M.27598573 .18710327V.24511719H.010986328V.18710327H.27598573Z"/>
<path id="font_2_101" d="M.45700074 .2036438C.45700074 .33070375 .36799623 .4267578 .25698854 .4267578 .18899536 .4267578 .1519928 .37573243 .13198853 .327713V.35173036C.13198853 .6047821 .2559967 .64100649 .30699159 .64100649 .33099366 .64100649 .37298585 .634964 .394989 .6007538 .37998963 .6007538 .33999635 .6007538 .33999635 .5557556 .33999635 .524765 .3639984 .5097656 .38598634 .5097656 .4019928 .5097656 .43199159 .51875308 .43199159 .5577545 .43199159 .6178589 .3880005 .6660156 .30499269 .6660156 .1769867 .6660156 .041992189 .5367584 .041992189 .31570436 .041992189 .048553468 .1579895-.022460938 .25099183-.022460938 .3619995-.022460938 .45700074 .07156372 .45700074 .2036438M.36698915 .20463562C.36698915 .15661621 .36698915 .10658264 .34999085 .0705719 .31999208 .010528564 .27398683 .0055389406 .25099183 .0055389406 .18798828 .0055389406 .1579895 .06556702 .1519928 .080566409 .13398743 .127594 .13398743 .2076416 .13398743 .22564698 .13398743 .30369569 .1659851 .40374757 .2559967 .40374757 .27198792 .40374757 .31799317 .40374757 .34899903 .34172059 .36698915 .30470277 .36698915 .2536621 .36698915 .20463562Z"/>
<path id="font_2_56" d="M.44898988 .20091248C.44898988 .31991578 .36698915 .41992188 .25898744 .41992188 .21099854 .41992188 .16799927 .4039154 .13198853 .36891175V.5641022C.1519928 .55778506 .18499756 .55078127 .21699524 .55078127 .33999635 .55078127 .4099884 .6418457 .4099884 .65493777 .4099884 .6609802 .40699769 .6660156 .3999939 .6660156 .3999939 .66607668 .39698792 .66607668 .3919983 .66308596 .37199403 .65408328 .32299806 .63378909 .2559967 .63378909 .21598816 .63409426 .16999817 .641098 .12298584 .6621094 .114990238 .6651001 .11099243 .6651001 .11099243 .6651001 .100997928 .66508486 .100997928 .657074 .100997928 .64108279V.3447113C.100997928 .3266449 .100997928 .31861878 .114990238 .31861878 .12199402 .31861878 .12399292 .32164 .12799073 .32765199 .13899231 .34371949 .17599488 .3979187 .25698854 .3979187 .30899049 .3979187 .33399964 .3517456 .34199525 .3336792 .35798646 .2965393 .3600006 .2574005 .3600006 .20721436 .3600006 .17218018 .3600006 .112197879 .33599855 .07032776 .31199647 .031448366 .2749939 .0055389406 .22898865 .0055389406 .1559906 .0055389406 .09899902 .05836487 .08198547 .1171875 .084991458 .11685181 .08799744 .115859989 .09899902 .115859989 .13198853 .115859989 .14898682 .14085388 .14898682 .16485596 .14898682 .18885803 .13198853 .21386719 .09899902 .21386719 .084991458 .21386719 .049987794 .2068634 .049987794 .16085816 .049987794 .07432556 .11898804-.022460938 .23098755-.022460938 .34700013-.022460938 .44898988 .07331848 .44898988 .20019531V.20091248Z"/>
<path id="font_2_57" d="M.47099305 .16503906V.19602967H.37098695V.6507721C.37098695 .6707611 .37098695 .6767578 .35499574 .6767578 .34599305 .6767578 .34298707 .6767578 .33499146 .6647644L.027999878 .19602967V.16503906H.2939911V.07800293C.2939911 .041992189 .2919922 .0309906 .21798706 .0309906H.19699097V0C.23799134 .0029907227 .2899933 .0029907227 .33198548 .0029907227 .37399293 .0029907227 .4269867 .0029907227 .46798707 0V.0309906H.44699098C.37298585 .0309906 .37098695 .041992189 .37098695 .07800293V.16503906H.47099305M.2999878 .19602967H.055999757L.2999878 .56881716V.19602967Z"/>
<path id="font_2_106" d="M.45700074 .17037964C.45700074 .252594 .3939972 .33088685 .2899933 .35191346 .37199403 .37893678 .42999269 .4490509 .42999269 .52809146 .42999269 .6100464 .34199525 .6660156 .24598694 .6660156 .14498902 .6660156 .068984989 .60606387 .068984989 .53009036 .068984989 .49710084 .09098816 .47808839 .11999512 .47808839 .15098572 .47808839 .17098999 .50009158 .17098999 .5290985 .17098999 .57910159 .12399292 .57910159 .10899353 .57910159 .13999939 .62802127 .20599365 .64100649 .24198914 .64100649 .2829895 .64100649 .33799745 .6190338 .33799745 .5290985 .33799745 .51708987 .33599855 .45906068 .30999757 .4149933 .27999879 .36691285 .24598694 .36390687 .22099304 .36291505 .21299744 .36190797 .18899536 .35990907 .18199158 .35990907 .17399597 .35890199 .16699219 .35791017 .16699219 .3479004 .16699219 .33691407 .17399597 .33691407 .19099427 .33691407H.23498535C.31698609 .33691407 .35398866 .2686615 .35398866 .17037964 .35398866 .034469606 .2849884 .0055389406 .24099732 .0055389406 .19799805 .0055389406 .12298584 .022491456 .08799744 .08137512 .12298584 .07637024 .1539917 .09837341 .1539917 .1363678 .1539917 .17237854 .1269989 .19238281 .09799194 .19238281 .07398987 .19238281 .041992189 .17837525 .041992189 .1343689 .041992189 .043441774 .1349945-.022460938 .24398804-.022460938 .3659973-.022460938 .45700074 .06838989 .45700074 .17037964Z"/>
<path id="font_2_107" d="M.44898988 .17396546H.42399598C.4189911 .14398194 .4119873 .099990848 .4019928 .084991458 .394989 .07699585 .32899476 .07699585 .30699159 .07699585H.1269989L.23298645 .17996216C.3889923 .31803895 .44898988 .37210084 .44898988 .47216798 .44898988 .5860901 .35899354 .6660156 .23699951 .6660156 .12399292 .6660156 .049987794 .57411196 .049987794 .48516847 .049987794 .4291687 .099990848 .4291687 .102996829 .4291687 .11999512 .4291687 .15499878 .44117738 .15499878 .48217774 .15499878 .5081787 .13699341 .5341797 .101989749 .5341797 .09399414 .5341797 .09199524 .5341797 .08898926 .5331726 .11199951 .59806826 .1659851 .63500979 .22399903 .63500979 .31498719 .63500979 .35798646 .5541382 .35798646 .47216798 .35798646 .39196778 .30799867 .31297303 .25299073 .25097657L.06098938 .036987306C.049987794 .025985718 .049987794 .023986817 .049987794 0H.42099L.44898988 .17396546Z"/>
<path id="font_2_82" d="M.4189911 0V.0309906H.3869934C.29699708 .0309906 .2939911 .041992189 .2939911 .07902527V.64012148C.2939911 .6640167 .2939911 .6660156 .2709961 .6660156 .20899964 .60227969 .12098694 .60227969 .08898926 .60227969V.57128909C.10899353 .57128909 .16799927 .57128909 .21998596 .5972748V.07902527C.21998596 .042999269 .21699524 .0309906 .1269989 .0309906H.09498596V0C.12998963 .0029907227 .21699524 .0029907227 .25698854 .0029907227 .29699708 .0029907227 .38398744 .0029907227 .4189911 0Z"/>
<path id="font_2_121" d="M.45999146 .31976319C.45999146 .39982606 .45498658 .47988893 .41999818 .5539398 .37399293 .65000918 .2919922 .6660156 .25 .6660156 .18998719 .6660156 .116989139 .64001467 .07598877 .54693606 .04399109 .47789 .038986207 .39982606 .038986207 .31976319 .038986207 .24472046 .042999269 .15464783 .083999637 .07859802 .1269989-.0024719239 .19999695-.022460938 .24899292-.022460938 .30299378-.022460938 .3789978-.0014648438 .4229889 .09359741 .45498658 .16265869 .45999146 .2407074 .45999146 .31976319M.3769989 .3317871C.3769989 .25672914 .3769989 .18867493 .3659973 .12461853 .35099793 .029556275 .2939911-.00047302247 .24899292-.00047302247 .20999146-.00047302247 .15098572 .024551392 .1329956 .12062073 .12199402 .18066406 .12199402 .2727356 .12199402 .3317871 .12199402 .39582826 .12199402 .46188355 .12998963 .5159149 .14898682 .63500979 .22399903 .64401248 .24899292 .64401248 .28199769 .64401248 .34799195 .6259918 .36698915 .52693179 .3769989 .47088624 .3769989 .39482118 .3769989 .3317871Z"/>
<path id="font_3_86" d="M.32798768 .24900818C.32798768 .43299867 .25898744 .61198428 .116989139 .72798159 .09098816 .75 .08898926 .75 .07899475 .75 .07398987 .75 .06199646 .75 .06199646 .73799136 .06199646 .73399356 .06199646 .7319946 .08099365 .71398928 .19299317 .60198977 .23599243 .42599488 .23599243 .25 .23599243 .053009035 .18699646-.10899353 .07499695-.22198487 .06298828-.23397827 .06199646-.23498535 .06199646-.23898316 .06199646-.25097657 .07398987-.25097657 .07899475-.25097657 .08799744-.25097657 .08999634-.25097657 .115997318-.22998047 .2599945-.114990238 .32798768 .069000247 .32798768 .24900818Z"/>
<path id="font_3_85" d="M.37399293-.23898316C.37399293-.23498535 .37399293-.23298645 .35499574-.21498108 .24299622-.10298157 .19999695 .073013309 .19999695 .24900818 .19999695 .44599916 .24899292 .60798647 .36099244 .72099307 .37298585 .73298647 .37399293 .73399356 .37399293 .73799136 .37399293 .75 .3619995 .75 .35699464 .75 .34799195 .75 .34599305 .75 .31999208 .72898867 .17599488 .6139984 .10798645 .42999269 .10798645 .25 .10798645 .06600952 .1769867-.11299133 .31900025-.22898865 .34498597-.25097657 .34700013-.25097657 .35699464-.25097657 .3619995-.25097657 .37399293-.25097657 .37399293-.23898316Z"/>
</defs>
<path transform="matrix(1.00008,0,0,-1.00005,160.04936,11.5029749)" stroke-width=".79701" stroke-linecap="butt" stroke-miterlimit="10" stroke-linejoin="miter" fill="none" stroke="#000000" d="M-158.74274 0H157.94573"/>
<path transform="matrix(1.00008,0,0,-1.00005,318.40626,11.5029749)" stroke-width=".79701" stroke-linecap="round" stroke-linejoin="round" fill="none" stroke="#000000" d="M-2.55046 3.11095C-2.0845 1.24435-1.04614 .36295 0 0-1.04614-.36295-2.0845-1.24435-2.55046-3.11095"/>
<use data-text="x" xlink:href="#font_1_1" transform="matrix(9.963397,0,0,-9.963098,322.52436,13.648082)"/>
<path transform="matrix(1.00008,0,0,-1.00005,160.04936,11.5029749)" stroke-width=".79701" stroke-linecap="butt" stroke-miterlimit="10" stroke-linejoin="miter" fill="none" stroke="#000000" d="M157.94573 0H-158.74274"/>
<path transform="matrix(1.00008,0,0,-1.00005,318.40626,11.5029749)" stroke-width=".79701" stroke-linecap="round" stroke-linejoin="round" fill="none" stroke="#000000" d="M-2.55046 3.11095C-2.0845 1.24435-1.04614 .36295 0 0-1.04614-.36295-2.0845-1.24435-2.55046-3.11095"/>
<path transform="matrix(1.00008,0,0,-1.00005,160.04936,11.5029749)" stroke-width=".3985" stroke-linecap="butt" stroke-miterlimit="10" stroke-linejoin="miter" fill="none" stroke="#000000" d="M-136.0652 1.81422V-1.81422"/>
<use data-text="-" xlink:href="#font_2_64" transform="matrix(9.963397,0,0,-9.963098,19.82315,23.472573)"/>
<use data-text="6" xlink:href="#font_2_101" transform="matrix(9.963397,0,0,-9.963098,23.14096,23.472573)"/>
<path transform="matrix(1.00008,0,0,-1.00005,160.04936,11.5029749)" stroke-width=".3985" stroke-linecap="butt" stroke-miterlimit="10" stroke-linejoin="miter" fill="none" stroke="#000000" d="M-113.38766 1.81422V-1.81422"/>
<use data-text="-" xlink:href="#font_2_64" transform="matrix(9.963397,0,0,-9.963098,42.50296,23.472573)"/>
<use data-text="5" xlink:href="#font_2_56" transform="matrix(9.963397,0,0,-9.963098,45.82077,23.472573)"/>
<path transform="matrix(1.00008,0,0,-1.00005,160.04936,11.5029749)" stroke-width=".3985" stroke-linecap="butt" stroke-miterlimit="10" stroke-linejoin="miter" fill="none" stroke="#000000" d="M-90.71013 1.81422V-1.81422"/>
<use data-text="-" xlink:href="#font_2_64" transform="matrix(9.963397,0,0,-9.963098,65.18176,23.582579)"/>
<use data-text="4" xlink:href="#font_2_57" transform="matrix(9.963397,0,0,-9.963098,68.49957,23.582579)"/>
<path transform="matrix(1.00008,0,0,-1.00005,160.04936,11.5029749)" stroke-width=".3985" stroke-linecap="butt" stroke-miterlimit="10" stroke-linejoin="miter" fill="none" stroke="#000000" d="M-68.0326 1.81422V-1.81422"/>
<use data-text="-" xlink:href="#font_2_64" transform="matrix(9.963397,0,0,-9.963098,87.86159,23.472573)"/>
<use data-text="3" xlink:href="#font_2_106" transform="matrix(9.963397,0,0,-9.963098,91.1794,23.472573)"/>
<path transform="matrix(1.00008,0,0,-1.00005,160.04936,11.5029749)" stroke-width=".3985" stroke-linecap="butt" stroke-miterlimit="10" stroke-linejoin="miter" fill="none" stroke="#000000" d="M-45.35506 1.81422V-1.81422"/>
<use data-text="-" xlink:href="#font_2_64" transform="matrix(9.963397,0,0,-9.963098,110.540409,23.472573)"/>
<use data-text="2" xlink:href="#font_2_107" transform="matrix(9.963397,0,0,-9.963098,113.858219,23.472573)"/>
<path transform="matrix(1.00008,0,0,-1.00005,160.04936,11.5029749)" stroke-width=".3985" stroke-linecap="butt" stroke-miterlimit="10" stroke-linejoin="miter" fill="none" stroke="#000000" d="M-22.67752 1.81422V-1.81422"/>
<use data-text="-" xlink:href="#font_2_64" transform="matrix(9.963397,0,0,-9.963098,133.22022,23.472573)"/>
<use data-text="1" xlink:href="#font_2_82" transform="matrix(9.963397,0,0,-9.963098,136.53803,23.472573)"/>
<path transform="matrix(1.00008,0,0,-1.00005,160.04936,11.5029749)" stroke-width=".3985" stroke-linecap="butt" stroke-miterlimit="10" stroke-linejoin="miter" fill="none" stroke="#000000" d="M0 1.81422V-1.81422"/>
<use data-text="0" xlink:href="#font_2_121" transform="matrix(9.963397,0,0,-9.963098,157.55817,23.472573)"/>
<path transform="matrix(1.00008,0,0,-1.00005,160.04936,11.5029749)" stroke-width=".3985" stroke-linecap="butt" stroke-miterlimit="10" stroke-linejoin="miter" fill="none" stroke="#000000" d="M22.67752 1.81422V-1.81422"/>
<use data-text="1" xlink:href="#font_2_82" transform="matrix(9.963397,0,0,-9.963098,180.23798,23.472573)"/>
<path transform="matrix(1.00008,0,0,-1.00005,160.04936,11.5029749)" stroke-width=".3985" stroke-linecap="butt" stroke-miterlimit="10" stroke-linejoin="miter" fill="none" stroke="#000000" d="M45.35506 1.81422V-1.81422"/>
<use data-text="2" xlink:href="#font_2_107" transform="matrix(9.963397,0,0,-9.963098,202.9168,23.472573)"/>
<path transform="matrix(1.00008,0,0,-1.00005,160.04936,11.5029749)" stroke-width=".3985" stroke-linecap="butt" stroke-miterlimit="10" stroke-linejoin="miter" fill="none" stroke="#000000" d="M68.0326 1.81422V-1.81422"/>
<use data-text="3" xlink:href="#font_2_106" transform="matrix(9.963397,0,0,-9.963098,225.5966,23.472573)"/>
<path transform="matrix(1.00008,0,0,-1.00005,160.04936,11.5029749)" stroke-width=".3985" stroke-linecap="butt" stroke-miterlimit="10" stroke-linejoin="miter" fill="none" stroke="#000000" d="M90.71013 1.81422V-1.81422"/>
<use data-text="4" xlink:href="#font_2_57" transform="matrix(9.963397,0,0,-9.963098,248.27542,23.582579)"/>
<path transform="matrix(1.00008,0,0,-1.00005,160.04936,11.5029749)" stroke-width=".3985" stroke-linecap="butt" stroke-miterlimit="10" stroke-linejoin="miter" fill="none" stroke="#000000" d="M113.38766 1.81422V-1.81422"/>
<use data-text="5" xlink:href="#font_2_56" transform="matrix(9.963397,0,0,-9.963098,270.95524,23.472573)"/>
<path transform="matrix(1.00008,0,0,-1.00005,160.04936,11.5029749)" stroke-width=".3985" stroke-linecap="butt" stroke-miterlimit="10" stroke-linejoin="miter" fill="none" stroke="#000000" d="M136.0652 1.81422V-1.81422"/>
<use data-text="6" xlink:href="#font_2_101" transform="matrix(9.963397,0,0,-9.963098,293.63505,23.472573)"/>
<path transform="matrix(1.00008,0,0,-1.00005,160.04936,11.5029749)" stroke-width="1.99255" stroke-linecap="butt" stroke-miterlimit="10" stroke-linejoin="miter" fill="none" stroke="#0000ff" d="M-45.35506 0H-140.15427"/>
<path transform="matrix(-1.00008,-0,0,1.00005,24.58989,11.5029749)" d="M9.11794 0 3.21756 2.2453 5.20377 0 3.21756-2.2453Z" fill="#0000ff"/>
<path transform="matrix(-1.00008,-0,0,1.00005,24.58989,11.5029749)" stroke-width="1.99255" stroke-linecap="butt" stroke-miterlimit="10" stroke-linejoin="miter" fill="none" stroke="#0000ff" d="M9.11794 0 3.21756 2.2453 5.20377 0 3.21756-2.2453Z"/>
<path transform="matrix(1.00008,0,0,-1.00005,160.04936,11.5029749)" stroke-width="1.99255" stroke-linecap="butt" stroke-miterlimit="10" stroke-linejoin="miter" fill="none" stroke="#0000ff" d="M-45.35506 0H90.71013"/>
<path transform="matrix(1.00008,0,0,-1.00005,160.04936,11.5029749)" stroke-width="1.99255" stroke-linecap="butt" stroke-miterlimit="10" stroke-linejoin="miter" fill="none" stroke="#0000ff" d="M90.71013 0H140.15427"/>
<path transform="matrix(1.00008,0,0,-1.00005,295.50886,11.5029749)" d="M9.11794 0 3.21756 2.2453 5.20377 0 3.21756-2.2453Z" fill="#0000ff"/>
<path transform="matrix(1.00008,0,0,-1.00005,295.50886,11.5029749)" stroke-width="1.99255" stroke-linecap="butt" stroke-miterlimit="10" stroke-linejoin="miter" fill="none" stroke="#0000ff" d="M9.11794 0 3.21756 2.2453 5.20377 0 3.21756-2.2453Z"/>
<use data-text=")" xlink:href="#font_3_86" transform="matrix(14.347347,0,0,-14.346916,108.406238,11.680984)" fill="#0000ff"/>
<use data-text="(" xlink:href="#font_3_85" transform="matrix(14.347347,0,0,-14.346916,114.69037,11.680984)" fill="#0000ff"/>
<use data-text=")" xlink:href="#font_3_86" transform="matrix(14.347347,0,0,-14.346916,244.48212,11.680984)" fill="#0000ff"/>
<use data-text="(" xlink:href="#font_3_85" transform="matrix(14.347347,0,0,-14.346916,250.76625,11.680984)" fill="#0000ff"/>
</svg>
