<svg xmlns="http://www.w3.org/2000/svg" xmlns:xlink="http://www.w3.org/1999/xlink" xmlns:inkscape="http://www.inkscape.org/namespaces/inkscape" version="1.1" width="247" height="128" viewBox="0 0 247 128">
<defs>
<path id="font_1_1" d="M.47399903 .40820313C.44198609 .40219117 .42999269 .3781891 .42999269 .3591919 .42999269 .33518983 .44898988 .3271942 .46299745 .3271942 .49299623 .3271942 .5139923 .3531952 .5139923 .380188 .5139923 .4223938 .46598817 .44140626 .42399598 .44140626 .36299134 .44140626 .32899476 .38119508 .31999208 .36219789 .29699708 .4373932 .23498535 .44140626 .21699524 .44140626 .114990238 .44140626 .06098938 .31021119 .06098938 .28822328 .06098938 .28422547 .06498718 .27923585 .07199097 .27923585 .07998657 .27923585 .08198547 .28523255 .083999637 .2892151 .117996219 .40019227 .18499756 .42140199 .21398926 .42140199 .25898744 .42140199 .2679901 .37919618 .2679901 .3551941 .2679901 .33319093 .2619934 .31021119 .25 .26223756L.21598816 .12535095C.20098877 .06535339 .17199707 .010223389 .11898804 .010223389 .11399841 .010223389 .08898926 .010223389 .067993167 .023330689 .10398865 .03036499 .11199951 .06036377 .11199951 .07235718 .11199951 .09236145 .09700012 .10435486 .07798767 .10435486 .053985597 .10435486 .027999878 .083358768 .027999878 .051361085 .027999878 .009231567 .07499695-.009765625 .117996219-.009765625 .1659851-.009765625 .19999695 .028366089 .22099304 .069366458 .23699951 .010223389 .2869873-.009765625 .32398988-.009765625 .42599488-.009765625 .47999574 .12135315 .47999574 .1433258 .47999574 .14833069 .47599793 .15232849 .46998597 .15232849 .46099855 .15232849 .45999146 .14732361 .45700074 .139328 .42999269 .051361085 .37199403 .010223389 .32699586 .010223389 .2919922 .010223389 .272995 .036361696 .272995 .07736206 .272995 .099365238 .2769928 .115356449 .29299928 .18130493L.32798768 .3171997C.34298707 .37719728 .3769989 .42140199 .4229889 .42140199 .4249878 .42140199 .45298768 .42140199 .47399903 .40820313Z"/>
<path id="font_2_1" d="M.1269989 .07699585 .23298645 .18003845C.3889923 .31811524 .44898988 .3721466 .44898988 .47216798 .44898988 .5860901 .35899354 .6660156 .23699951 .6660156 .12399292 .6660156 .049987794 .57411196 .049987794 .48516847 .049987794 .4291687 .099990848 .4291687 .102996829 .4291687 .11999512 .4291687 .15499878 .44117738 .15499878 .48217774 .15499878 .5081787 .13699341 .5341797 .101989749 .5341797 .09399414 .5341797 .09199524 .5341797 .08898926 .5331726 .11199951 .59806826 .1659851 .63500979 .22399903 .63500979 .31498719 .63500979 .35798646 .5541382 .35798646 .47216798 .35798646 .39215089 .30799867 .31311036 .25299073 .25108338L.06098938 .036987306C.049987794 .025985718 .049987794 .023986817 .049987794 0H.42099L.44898988 .17404175H.42399598C.4189911 .14402771 .4119873 .1000061 .4019928 .084991458 .394989 .07699585 .32899476 .07699585 .30699159 .07699585H.1269989Z"/>
<path id="font_3_1" d="M.6589966 .23046875C.6759949 .23046875 .69400027 .23046875 .69400027 .25045777 .69400027 .27046205 .6759949 .27046205 .6589966 .27046205H.117996219C.100997928 .27046205 .08299255 .27046205 .08299255 .25045777 .08299255 .23046875 .100997928 .23046875 .117996219 .23046875H.6589966Z"/>
<path id="font_4_5" d="M.18399048 .35888673C.16699219 .35787965 .16299439 .35688783 .16299439 .34788514 .16299439 .33789063 .16799927 .33789063 .18598938 .33789063H.23199463C.31698609 .33789063 .35499574 .267807 .35499574 .17172241 .35499574 .04058838 .2869873 .005508423 .23799134 .005508423 .18998719 .005508423 .10798645 .028564454 .07899475 .09472656 .11099243 .08970642 .13999939 .10771179 .13999939 .14372254 .13999939 .17271424 .11898804 .1927185 .09098816 .1927185 .066986087 .1927185 .040985109 .1787262 .040985109 .14071656 .040985109 .051620485 .12998963-.021484375 .24099732-.021484375 .3600006-.021484375 .44799806 .06965637 .44799806 .17071533 .44799806 .26280213 .37399293 .33488465 .27799989 .35188294 .36499024 .3769226 .42099 .45011903 .42099 .5282135 .42099 .6071167 .33898927 .66503909 .24198914 .66503909 .14199829 .66503909 .067993167 .604126 .067993167 .5312042 .067993167 .49121095 .09899902 .48321534 .11399841 .48321534 .1349945 .48321534 .15899658 .49821473 .15899658 .5282135 .15899658 .5602112 .1349945 .57421877 .11299133 .57421877 .10699463 .57421877 .10499573 .57421877 .101989749 .57321169 .13999939 .641037 .23399353 .641037 .23899842 .641037 .27198792 .641037 .33699037 .6260681 .33699037 .5282135 .33699037 .5092163 .33399964 .453125 .30499269 .41001893 .2749939 .3658905 .24099732 .36288453 .21398926 .36187745L.18399048 .35888673Z"/>
<path id="font_4_1" d="M.39898683 .23057556H.6749878C.68899539 .23057556 .70700076 .23057556 .70700076 .24856568 .70700076 .26757813 .6899872 .26757813 .6749878 .26757813H.39898683V.5441437C.39898683 .5581665 .39898683 .5761719 .3809967 .5761719 .3619995 .5761719 .3619995 .5591583 .3619995 .5441437V.26757813H.085998538C.07199097 .26757813 .053985597 .26757813 .053985597 .24957276 .053985597 .23057556 .070999149 .23057556 .085998538 .23057556H.3619995V-.045166017C.3619995-.059158327 .3619995-.07714844 .37998963-.07714844 .39898683-.07714844 .39898683-.060150148 .39898683-.045166017V.23057556Z"/>
<path id="font_4_6" d="M.36099244 .6508026C.36099244 .6697998 .36099244 .6748047 .34700013 .6748047 .33898927 .6748047 .33599855 .6748047 .32798768 .662796L.026992798 .19598389V.16699219H.2899933V.07598877C.2899933 .038986207 .28799439 .0289917 .21499634 .0289917H.19499207V0C.21798706 .0019989014 .29699708 .0019989014 .32499696 .0019989014 .35299684 .0019989014 .43299867 .0019989014 .45599366 0V.0289917H.43598939C.3639984 .0289917 .36099244 .038986207 .36099244 .07598877V.16699219H.46199037V.19598389H.36099244V.6508026M.29499818 .5728302V.19598389H.051986696L.29499818 .5728302Z"/>
<path id="font_4_4" d="M.43998719 .16790772H.41799928C.4149933 .15092469 .40699769 .09597778 .39698792 .07998657 .3899994 .070999149 .33299256 .070999149 .30299378 .070999149H.117996219C.14498902 .09397888 .20599365 .15792847 .23199463 .18190003 .38398744 .3217926 .43998719 .37374879 .43998719 .47270204 .43998719 .5878906 .34899903 .66503909 .23298645 .66503909 .116989139 .66503909 .04899597 .5658264 .04899597 .4797058 .04899597 .42871095 .09298706 .42871095 .09599304 .42871095 .116989139 .42871095 .14299011 .44371034 .14299011 .475708 .14299011 .5037079 .12399292 .5227051 .09599304 .5227051 .08699036 .5227051 .084991458 .5227051 .08198547 .521698 .100997928 .5899048 .15499878 .6360321 .21998596 .6360321 .30499269 .6360321 .35699464 .56481936 .35699464 .47270204 .35699464 .3877411 .30799867 .313797 .25099183 .24984741L.04899597 .023986817V0H.4139862L.43998719 .16790772Z"/>
<path id="font_2_2" d="M.2899933 .35191346C.37199403 .37893678 .42999269 .4490509 .42999269 .52809146 .42999269 .6100464 .34199525 .6660156 .24598694 .6660156 .14498902 .6660156 .068984989 .60606387 .068984989 .53009036 .068984989 .49710084 .09098816 .47808839 .11999512 .47808839 .15098572 .47808839 .17098999 .50009158 .17098999 .5290985 .17098999 .57910159 .12399292 .57910159 .10899353 .57910159 .13999939 .62802127 .20599365 .64100649 .24198914 .64100649 .2829895 .64100649 .33799745 .6190338 .33799745 .5290985 .33799745 .51708987 .33599855 .45906068 .30999757 .4149933 .27999879 .36691285 .24598694 .36390687 .22099304 .36291505 .21299744 .36190797 .18899536 .35990907 .18199158 .35990907 .17399597 .35890199 .16699219 .35791017 .16699219 .3479004 .16699219 .33691407 .17399597 .33691407 .19099427 .33691407H.23498535C.31698609 .33691407 .35398866 .2686615 .35398866 .17037964 .35398866 .034469606 .2849884 .0055389406 .24099732 .0055389406 .19799805 .0055389406 .12298584 .022491456 .08799744 .08137512 .12298584 .07637024 .1539917 .09837341 .1539917 .1363678 .1539917 .17237854 .1269989 .19238281 .09799194 .19238281 .07398987 .19238281 .041992189 .17837525 .041992189 .1343689 .041992189 .043441774 .1349945-.022460938 .24398804-.022460938 .3659973-.022460938 .45700074 .06838989 .45700074 .17037964 .45700074 .252594 .3939972 .33088685 .2899933 .35191346Z"/>
<path id="font_4_3" d="M.28799439 .64105227C.28799439 .664032 .28799439 .66503909 .2679901 .66503909 .24398804 .6380615 .19400025 .6012573 .09098816 .6012573V.5722656C.11399841 .5722656 .1639862 .5722656 .21899414 .59825137V.07701111C.21899414 .041000368 .21598816 .0289917 .12799073 .0289917H.09700012V0C.12399292 .0019989014 .22099304 .0019989014 .2539978 .0019989014 .2869873 .0019989014 .3829956 .0019989014 .4099884 0V.0289917H.3789978C.29100038 .0289917 .28799439 .041000368 .28799439 .07701111V.64105227Z"/>
<path id="font_4_7" d="M.12298584 .34773255C.12298584 .60061648 .24598694 .641037 .2999878 .641037 .33599855 .641037 .37199403 .62991335 .3909912 .5996094 .3789978 .5996094 .34098817 .5996094 .34098817 .558609 .34098817 .53660586 .35598756 .51760867 .38198854 .51760867 .40699769 .51760867 .42399598 .53260806 .42399598 .56159976 .42399598 .6137543 .38598634 .66503909 .29899598 .66503909 .17298889 .66503909 .040985109 .53559878 .040985109 .31570436 .040985109 .040527345 .16099549-.021484375 .24598694-.021484375 .35499574-.021484375 .44799806 .07354736 .44799806 .2036438 .44799806 .33673097 .35499574 .42578126 .25498963 .42578126 .1659851 .42578126 .1329956 .34873963 .12298584 .32070924V.34773255M.24598694 .005508423C.18299866 .005508423 .15299988 .061538698 .14399719 .08256531 .1349945 .10858154 .125 .15760803 .125 .22766114 .125 .30670167 .16099549 .40577699 .25099183 .40577699 .30599977 .40577699 .33499146 .3687439 .34999085 .33473207 .3659973 .29769898 .3659973 .2476654 .3659973 .20463562 .3659973 .15361023 .3659973 .10858154 .34700013 .07055664 .32199098 .022521973 .28599549 .005508423 .24598694 .005508423Z"/>
<path id="font_4_8" d="M.2979889 .36079408C.34799195 .38781739 .42099 .43385316 .42099 .5179291 .42099 .6049957 .33699037 .66503909 .24499512 .66503909 .1459961 .66503909 .067993167 .59199526 .067993167 .5009155 .067993167 .46688844 .07798767 .43286134 .10598755 .39883424 .116989139 .38581849 .117996219 .38482667 .18798828 .3357849 .09098816 .29074098 .040985109 .22369385 .040985109 .15063477 .040985109 .044540407 .14199829-.021484375 .24398804-.021484375 .35499574-.021484375 .44799806 .060546876 .44799806 .16563416 .44799806 .2677307 .37599183 .3127594 .2979889 .36079408M.1619873 .4508667C.14898682 .45988465 .10899353 .48590089 .10899353 .5349426 .10899353 .59999087 .1769867 .641037 .24398804 .641037 .31599427 .641037 .37998963 .58898928 .37998963 .516922 .37998963 .45587159 .33599855 .4068451 .27799989 .3748169L.1619873 .4508667M.20899964 .32176209 .32998658 .2427063C.35598756 .22569275 .4019928 .19465637 .4019928 .13360596 .4019928 .057556154 .32499696 .005508423 .24499512 .005508423 .1599884 .005508423 .08699036 .06756592 .08699036 .15063477 .08699036 .22869873 .14399719 .29174806 .20899964 .32176209Z"/>
<path id="font_4_2" d="M.44799806 .31976319C.44799806 .40283204 .44299317 .48390199 .40699769 .55996707 .3659973 .64302065 .2939911 .66503909 .24499512 .66503909 .18699646 .66503909 .115997318 .63601687 .07899475 .552948 .050994874 .48989869 .040985109 .42785646 .040985109 .31976319 .040985109 .22268677 .04798889 .14962769 .083999637 .078567508 .12298584 .0025177003 .19198609-.021484375 .24398804-.021484375 .33099366-.021484375 .3809967 .030532837 .4099884 .08857727 .44599916 .16363526 .44799806 .26171876 .44799806 .31976319M.24398804-.0014953613C.21199036-.0014953613 .14698792 .016525269 .12799073 .12561035 .116989139 .18565369 .116989139 .26171876 .116989139 .33177186 .116989139 .41384889 .116989139 .48789979 .1329956 .5469513 .1499939 .6139984 .20098877 .6450348 .24398804 .6450348 .28199769 .6450348 .33999635 .6220093 .35899354 .53593447 .37199403 .4788971 .37199403 .39982606 .37199403 .33177186 .37199403 .26472474 .37199403 .18865967 .36099244 .12760926 .34199525 .01751709 .2789917-.0014953613 .24398804-.0014953613Z"/>
</defs>
<path transform="matrix(1.00005,0,0,-1.00002,75.06799,29.768338)" stroke-width=".79701" stroke-linecap="butt" stroke-miterlimit="10" stroke-linejoin="miter" fill="none" stroke="#000000" d="M6.8031-96.37897V14.17339H170.08049"/>
<use data-text="x" xlink:href="#font_1_1" transform="matrix(14.346916,0,0,-14.346487,1.2163086,34.984445)"/>
<use data-text="2" xlink:href="#font_2_1" transform="matrix(9.963098,0,0,-9.962799,9.199707,29.77834)"/>
<use data-text="&#x2212;" xlink:href="#font_3_1" transform="matrix(14.346916,0,0,-14.346487,17.867127,34.984445)"/>
<use data-text="3" xlink:href="#font_4_5" transform="matrix(14.346916,0,0,-14.346487,32.213838,34.984445)"/>
<use data-text="x" xlink:href="#font_1_1" transform="matrix(14.346916,0,0,-14.346487,39.23819,34.984445)"/>
<use data-text="+" xlink:href="#font_4_1" transform="matrix(14.346916,0,0,-14.346487,50.408754,34.984445)"/>
<use data-text="4" xlink:href="#font_4_6" transform="matrix(14.346916,0,0,-14.346487,64.51178,34.984445)"/>
<use data-text="2" xlink:href="#font_4_4" transform="matrix(14.346916,0,0,-14.346487,92.03884,35.58145)"/>
<use data-text="x" xlink:href="#font_1_1" transform="matrix(14.346916,0,0,-14.346487,99.063198,35.58145)"/>
<use data-text="3" xlink:href="#font_2_2" transform="matrix(9.963098,0,0,-9.962799,107.045589,30.37535)"/>
<use data-text="+" xlink:href="#font_4_1" transform="matrix(14.346916,0,0,-14.346487,127.39661,35.033445)"/>
<use data-text="2" xlink:href="#font_4_4" transform="matrix(14.346916,0,0,-14.346487,138.31462,35.033445)"/>
<use data-text="x" xlink:href="#font_1_1" transform="matrix(14.346916,0,0,-14.346487,145.34651,35.033445)"/>
<use data-text="2" xlink:href="#font_2_1" transform="matrix(9.963098,0,0,-9.962799,153.32991,29.82734)"/>
<use data-text="&#x2212;" xlink:href="#font_3_1" transform="matrix(14.346916,0,0,-14.346487,167.3296,33.79342)"/>
<use data-text="1" xlink:href="#font_4_3" transform="matrix(14.346916,0,0,-14.346487,178.48816,33.79342)"/>
<use data-text="6" xlink:href="#font_4_7" transform="matrix(14.346916,0,0,-14.346487,185.5038,33.79342)"/>
<use data-text="x" xlink:href="#font_1_1" transform="matrix(14.346916,0,0,-14.346487,192.53687,33.79342)"/>
<use data-text="+" xlink:href="#font_4_1" transform="matrix(14.346916,0,0,-14.346487,212.25885,33.84342)"/>
<use data-text="3" xlink:href="#font_4_5" transform="matrix(14.346916,0,0,-14.346487,223.17687,33.84342)"/>
<use data-text="2" xlink:href="#font_4_4" transform="matrix(14.346916,0,0,-14.346487,230.1925,33.84342)"/>
<use data-text="2" xlink:href="#font_4_4" transform="matrix(14.346916,0,0,-14.346487,94.77898,11.712975)"/>
<use data-text="x" xlink:href="#font_1_1" transform="matrix(14.346916,0,0,-14.346487,101.80333,11.712975)"/>
<use data-text="+" xlink:href="#font_4_1" transform="matrix(14.346916,0,0,-14.346487,134.12894,11.164965)"/>
<use data-text="8" xlink:href="#font_4_8" transform="matrix(14.346916,0,0,-14.346487,145.04695,11.164965)"/>
<use data-text="&#x2212;" xlink:href="#font_3_1" transform="matrix(14.346916,0,0,-14.346487,86.459568,51.992784)" fill="#0000ff"/>
<use data-text="2" xlink:href="#font_4_4" transform="matrix(14.346916,0,0,-14.346487,97.61812,51.992784)" fill="#0000ff"/>
<use data-text="x" xlink:href="#font_1_1" transform="matrix(14.346916,0,0,-14.346487,104.64247,51.992784)" fill="#0000ff"/>
<use data-text="3" xlink:href="#font_2_2" transform="matrix(9.963098,0,0,-9.962799,112.625888,46.78668)" fill="#0000ff"/>
<use data-text="+" xlink:href="#font_4_1" transform="matrix(14.346916,0,0,-14.346487,127.39661,52.04278)" fill="#0000ff"/>
<use data-text="6" xlink:href="#font_4_7" transform="matrix(14.346916,0,0,-14.346487,138.31462,52.04278)" fill="#0000ff"/>
<use data-text="x" xlink:href="#font_1_1" transform="matrix(14.346916,0,0,-14.346487,145.34651,52.04278)" fill="#0000ff"/>
<use data-text="2" xlink:href="#font_2_1" transform="matrix(9.963098,0,0,-9.962799,153.32991,46.836679)" fill="#0000ff"/>
<use data-text="&#x2212;" xlink:href="#font_3_1" transform="matrix(14.346916,0,0,-14.346487,170.84177,50.80176)" fill="#0000ff"/>
<use data-text="8" xlink:href="#font_4_8" transform="matrix(14.346916,0,0,-14.346487,182.00034,50.80176)" fill="#0000ff"/>
<use data-text="x" xlink:href="#font_1_1" transform="matrix(14.346916,0,0,-14.346487,189.02469,50.80176)" fill="#0000ff"/>
<path transform="matrix(1.00005,0,0,-1.00002,75.06799,29.768338)" stroke-width=".79701" stroke-linecap="butt" stroke-miterlimit="10" stroke-linejoin="miter" fill="none" stroke="#0000ff" d="M13.60622-25.51193H115.65451"/>
<use data-text="8" xlink:href="#font_4_8" transform="matrix(14.346916,0,0,-14.346487,132.85988,75.26825)"/>
<use data-text="x" xlink:href="#font_1_1" transform="matrix(14.346916,0,0,-14.346487,139.88423,75.26825)"/>
<use data-text="2" xlink:href="#font_2_1" transform="matrix(9.963098,0,0,-9.962799,147.86663,70.06215)"/>
<use data-text="&#x2212;" xlink:href="#font_3_1" transform="matrix(14.346916,0,0,-14.346487,167.3296,73.47921)"/>
<use data-text="2" xlink:href="#font_4_4" transform="matrix(14.346916,0,0,-14.346487,178.48816,73.47921)"/>
<use data-text="4" xlink:href="#font_4_6" transform="matrix(14.346916,0,0,-14.346487,185.5038,73.47921)"/>
<use data-text="x" xlink:href="#font_1_1" transform="matrix(14.346916,0,0,-14.346487,192.53687,73.47921)"/>
<use data-text="+" xlink:href="#font_4_1" transform="matrix(14.346916,0,0,-14.346487,212.25885,73.52921)"/>
<use data-text="3" xlink:href="#font_4_5" transform="matrix(14.346916,0,0,-14.346487,223.17687,73.52921)"/>
<use data-text="2" xlink:href="#font_4_4" transform="matrix(14.346916,0,0,-14.346487,230.1925,73.52921)"/>
<use data-text="&#x2212;" xlink:href="#font_3_1" transform="matrix(14.346916,0,0,-14.346487,127.2806,91.67857)" fill="#0000ff"/>
<use data-text="8" xlink:href="#font_4_8" transform="matrix(14.346916,0,0,-14.346487,138.43915,91.67857)" fill="#0000ff"/>
<use data-text="x" xlink:href="#font_1_1" transform="matrix(14.346916,0,0,-14.346487,145.4635,91.67857)" fill="#0000ff"/>
<use data-text="2" xlink:href="#font_2_1" transform="matrix(9.963098,0,0,-9.962799,153.44693,86.47247)" fill="#0000ff"/>
<use data-text="+" xlink:href="#font_4_1" transform="matrix(14.346916,0,0,-14.346487,167.44661,90.53755)" fill="#0000ff"/>
<use data-text="2" xlink:href="#font_4_4" transform="matrix(14.346916,0,0,-14.346487,178.36463,90.53755)" fill="#0000ff"/>
<use data-text="4" xlink:href="#font_4_6" transform="matrix(14.346916,0,0,-14.346487,185.38027,90.53755)" fill="#0000ff"/>
<use data-text="x" xlink:href="#font_1_1" transform="matrix(14.346916,0,0,-14.346487,192.42086,90.53755)" fill="#0000ff"/>
<use data-text="&#x2212;" xlink:href="#font_3_1" transform="matrix(14.346916,0,0,-14.346487,212.14284,90.488559)" fill="#0000ff"/>
<use data-text="3" xlink:href="#font_4_5" transform="matrix(14.346916,0,0,-14.346487,223.30139,90.488559)" fill="#0000ff"/>
<use data-text="2" xlink:href="#font_4_4" transform="matrix(14.346916,0,0,-14.346487,230.31703,90.488559)" fill="#0000ff"/>
<path transform="matrix(1.00005,0,0,-1.00002,75.06799,29.768338)" stroke-width=".79701" stroke-linecap="butt" stroke-miterlimit="10" stroke-linejoin="miter" fill="none" stroke="#0000ff" d="M61.22906-65.19774H156.47425"/>
<use data-text="0" xlink:href="#font_4_2" transform="matrix(14.346916,0,0,-14.346487,180.41326,113.76402)"/>
<use data-text="0" xlink:href="#font_4_2" transform="matrix(14.346916,0,0,-14.346487,221.23429,113.76402)"/>
</svg>
